<svg width="384" height="71" viewBox="0 0 384 71" fill="none" xmlns="http://www.w3.org/2000/svg">
<path d="M41.2 0H55.8C63.5443 0 70.9715 3.06886 76.4475 8.53145C81.9236 13.9941 85 21.4029 85 29.1282C85 36.8535 81.9236 44.2624 76.4475 49.725C70.9715 55.1876 63.5443 58.2564 55.8 58.2564V71C37.55 63.7179 12 52.7949 12 29.1282C12 21.4029 15.0764 13.9941 20.5525 8.53145C26.0285 3.06886 33.4557 0 41.2 0Z" fill="url(#paint0_linear_1105_2392)"/>
<path d="M128.582 33.048H133.604C137.276 33.048 138.842 31.212 138.842 28.296C138.842 25.38 137.276 23.544 133.604 23.544H128.582V33.048ZM148.238 28.296C148.238 34.56 143.972 40.392 134.306 40.392H128.582V54H119.348V16.092H134.306C143.594 16.092 148.238 21.33 148.238 28.296Z" fill="#0233B3"/>
<path d="M161.469 30.834C158.445 30.834 156.123 32.67 155.583 36.018H167.139C167.139 32.724 164.547 30.834 161.469 30.834ZM175.887 44.01C174.429 49.896 169.083 54.432 161.577 54.432C152.721 54.432 146.349 48.492 146.349 38.934C146.349 29.376 152.613 23.436 161.577 23.436C170.379 23.436 176.589 29.268 176.589 38.448C176.589 39.312 176.535 40.23 176.427 41.148H155.529C155.853 45.09 158.283 46.926 161.253 46.926C163.845 46.926 165.303 45.63 166.059 44.01H175.887Z" fill="#0233B3"/>
<path d="M174.765 38.88C174.765 29.376 180.651 23.436 188.049 23.436C192.045 23.436 195.501 25.272 197.337 28.026V14.04H206.571V54H197.337V49.68C195.663 52.434 192.477 54.432 188.049 54.432C180.651 54.432 174.765 48.384 174.765 38.88ZM197.337 38.934C197.337 34.128 194.259 31.482 190.749 31.482C187.293 31.482 184.161 34.074 184.161 38.88C184.161 43.686 187.293 46.386 190.749 46.386C194.259 46.386 197.337 43.74 197.337 38.934Z" fill="#0233B3"/>
<path d="M237.875 38.934C237.875 48.492 230.963 54.432 222.107 54.432C213.251 54.432 206.555 48.492 206.555 38.934C206.555 29.376 213.413 23.436 222.215 23.436C231.071 23.436 237.875 29.376 237.875 38.934ZM215.951 38.934C215.951 44.01 218.759 46.44 222.107 46.44C225.401 46.44 228.479 44.01 228.479 38.934C228.479 33.804 225.455 31.428 222.215 31.428C218.867 31.428 215.951 33.804 215.951 38.934Z" fill="#0233B3"/>
<path d="M279.44 54V37.638C279.44 33.696 277.172 31.536 273.662 31.536C270.152 31.536 267.884 33.696 267.884 37.638V54H258.704V37.638C258.704 33.696 256.436 31.536 252.926 31.536C249.416 31.536 247.148 33.696 247.148 37.638V54H237.914V23.868H247.148V27.648C248.93 25.218 252.008 23.544 255.95 23.544C260.486 23.544 264.158 25.542 266.21 29.16C268.208 25.974 271.988 23.544 276.362 23.544C283.814 23.544 288.62 28.296 288.62 36.396V54H279.44Z" fill="#0233B3"/>
<path d="M288.382 38.88C288.382 29.376 294.268 23.436 301.666 23.436C306.148 23.436 309.334 25.488 310.954 28.134V23.868H320.188V54H310.954V49.734C309.28 52.38 306.094 54.432 301.612 54.432C294.268 54.432 288.382 48.384 288.382 38.88ZM310.954 38.934C310.954 34.128 307.876 31.482 304.366 31.482C300.91 31.482 297.778 34.074 297.778 38.88C297.778 43.686 300.91 46.386 304.366 46.386C307.876 46.386 310.954 43.74 310.954 38.934Z" fill="#0233B3"/>
<path d="M342.798 54V37.638C342.798 33.534 340.53 31.266 337.02 31.266C333.51 31.266 331.242 33.534 331.242 37.638V54H322.008V23.868H331.242V27.864C333.078 25.326 336.318 23.544 340.368 23.544C347.334 23.544 351.978 28.296 351.978 36.396V54H342.798Z" fill="#0233B3"/>
<path d="M363.309 49.464C363.309 52.218 361.095 54.432 357.855 54.432C354.561 54.432 352.347 52.218 352.347 49.464C352.347 46.602 354.561 44.388 357.855 44.388C361.095 44.388 363.309 46.602 363.309 49.464Z" fill="#0233B3"/>
<defs>
<linearGradient id="paint0_linear_1105_2392" x1="18" y1="-1.19917e-06" x2="76.102" y2="50.3824" gradientUnits="userSpaceOnUse">
<stop stop-color="white"/>
<stop offset="0.879563" stop-color="#0233B3"/>
</linearGradient>
</defs>
</svg>
